<svg width="243" height="62" viewBox="0 0 243 62" fill="none" xmlns="http://www.w3.org/2000/svg">
    <path d="M1.28491 44.8203H8.81188C8.85514 46.5939 9.89334 48.108 14.5653 48.108C18.4153 48.108 19.9726 47.3726 19.9726 46.2046C19.9726 44.7771 17.8962 44.431 12.6619 44.085C2.62592 43.3928 1.97704 39.067 1.97704 36.6878C1.97704 32.8378 5.78379 29.2473 14.522 29.2473C21.9192 29.2473 26.5479 31.7563 26.8939 37.2069H19.3669C19.2804 35.5198 18.2855 34.6114 14.3922 34.6114C10.8883 34.6114 9.59053 35.2602 9.59053 36.3849C9.59053 37.1636 10.0664 37.899 15.2141 38.1585C23.6063 38.5911 27.5861 40.8406 27.5861 45.772C27.5861 50.1411 23.2602 53.472 14.3922 53.472C5.48098 53.472 1.58772 50.1844 1.28491 44.8203ZM39.0343 53.472C33.1944 53.472 29.2147 50.2709 29.2147 43.7821V29.9394H36.8282V40.6675C36.8282 45.8153 38.3422 47.2428 41.5866 47.2428C45.2636 47.2428 48.5945 43.3063 48.5945 38.0288V29.9394H56.208V52.7799H48.5945V51.6984C48.5945 50.6602 48.7675 49.9248 49.1568 49.2327C49.5461 48.5406 49.9787 47.7619 49.4164 47.5456C48.8973 47.3293 48.681 47.8052 48.4647 48.108C46.8209 50.4007 43.7495 53.472 39.0343 53.472ZM59.5946 21.6338H67.2081V30.6316C67.2081 31.2804 67.0783 31.9293 66.7323 32.5349C66.3429 33.2271 65.7806 33.9625 66.3429 34.2653C66.8188 34.5248 67.1648 33.9192 67.3811 33.6597C69.5873 31.1074 72.2261 29.2473 76.3789 29.2473C83.7328 29.2473 87.9722 34.6114 87.9722 41.3597C87.9722 48.108 83.7328 53.472 76.3789 53.472C72.2693 53.472 69.5873 51.6552 67.3811 49.0164C67.2081 48.8001 66.9053 48.3675 66.516 48.4973C65.8671 48.7136 66.2564 49.4057 66.689 50.0979C67.0783 50.7035 67.2081 51.3091 67.2081 51.958V52.7799H59.5946V21.6338ZM73.9997 47.2428C78.3688 47.2428 80.3587 44.5175 80.3587 41.3597C80.3587 38.2018 78.3688 35.4765 73.9997 35.4765C69.8469 35.4765 67.2081 38.2018 67.2081 41.3597C67.2081 44.5175 69.8469 47.2428 73.9997 47.2428ZM89.6042 52.7799V45.1664H97.9098V52.7799H89.6042ZM99.5475 41.3597C99.5475 34.6979 104.782 29.2473 113.996 29.2473C122.128 29.2473 126.844 34.0057 127.233 38.9805L119.706 39.0237C119.187 37.1636 117.327 35.4765 114.082 35.4765C109.843 35.4765 107.161 38.1585 107.161 41.3597C107.161 44.5608 109.843 47.2428 114.082 47.2428C117.327 47.2428 119.187 45.5125 119.706 43.6524L127.233 43.6956C126.844 48.6704 122.215 53.472 113.996 53.472C104.955 53.472 99.5475 48.0215 99.5475 41.3597ZM128.888 52.7799V21.6338H136.501V52.7799H128.888ZM149.031 53.472C143.191 53.472 139.211 50.2709 139.211 43.7821V29.9394H146.825V40.6675C146.825 45.8153 148.339 47.2428 151.583 47.2428C155.26 47.2428 158.591 43.3063 158.591 38.0288V29.9394H166.204V52.7799H158.591V51.6984C158.591 50.6602 158.764 49.9248 159.153 49.2327C159.543 48.5406 159.975 47.7619 159.413 47.5456C158.894 47.3293 158.677 47.8052 158.461 48.108C156.817 50.4007 153.746 53.472 149.031 53.472ZM169.591 21.6338H177.205V30.6316C177.205 31.2804 177.075 31.9293 176.729 32.5349C176.339 33.2271 175.777 33.9625 176.339 34.2653C176.815 34.5248 177.161 33.9192 177.378 33.6597C179.584 31.1074 182.223 29.2473 186.375 29.2473C193.729 29.2473 197.969 34.6114 197.969 41.3597C197.969 48.108 193.729 53.472 186.375 53.472C182.266 53.472 179.584 51.6552 177.378 49.0164C177.205 48.8001 176.902 48.3675 176.512 48.4973C175.864 48.7136 176.253 49.4057 176.685 50.0979C177.075 50.7035 177.205 51.3091 177.205 51.958V52.7799H169.591V21.6338ZM183.996 47.2428C188.365 47.2428 190.355 44.5175 190.355 41.3597C190.355 38.2018 188.365 35.4765 183.996 35.4765C179.843 35.4765 177.205 38.2018 177.205 41.3597C177.205 44.5175 179.843 47.2428 183.996 47.2428Z" fill="#FAFAFA"/>
    <path fill-rule="evenodd" clip-rule="evenodd" d="M226.045 1.20547C226.045 0.539707 225.505 0 224.84 0H221.519C219.653 0 218.123 1.53377 218.123 3.40989V4.41413H213.611C213.078 4.41413 212.604 4.75449 212.433 5.2599L211.367 8.42326H206.732C202.743 8.42326 199.51 11.6568 199.51 15.6456V18.5195C199.51 22.9231 201.342 26.8987 204.286 29.7253L202.141 36.1542C201.873 36.9589 202.472 37.7901 203.32 37.7901H205.84C206.169 37.7901 206.485 37.6592 206.718 37.4264L210.649 33.4971C210.669 33.4779 210.687 33.4584 210.705 33.4384C212.081 33.838 213.537 34.0521 215.042 34.0521H229.876C236.953 34.0521 242.69 28.3149 242.69 21.2377C242.69 14.1605 236.953 8.42326 229.876 8.42326H228.374V5.65674C228.374 4.97047 227.817 4.41413 227.131 4.41413H221.519V4.06769C221.519 3.48081 221.941 2.97921 222.52 2.87968L225.044 2.44529C225.622 2.34576 226.045 1.84417 226.045 1.25728V1.20547ZM221.443 17.4321C223.147 17.4321 224.528 18.8132 224.528 20.5168C224.528 22.2205 223.147 23.6016 221.443 23.6016C219.74 23.6016 218.358 22.2205 218.358 20.5168C218.358 18.8132 219.74 17.4321 221.443 17.4321ZM234.635 20.5168C234.635 18.8132 233.254 17.4321 231.55 17.4321C229.847 17.4321 228.466 18.8132 228.466 20.5168C228.466 22.2205 229.847 23.6016 231.55 23.6016C233.254 23.6016 234.635 22.2205 234.635 20.5168ZM211.336 17.4321C213.04 17.4321 214.421 18.8132 214.421 20.5168C214.421 22.2205 213.04 23.6016 211.336 23.6016C209.632 23.6016 208.251 22.2205 208.251 20.5168C208.251 18.8132 209.632 17.4321 211.336 17.4321Z" fill="#E96E3A"/>
    </svg>
    